<?xml version="1.0" standalone="no"?>
<!DOCTYPE svg PUBLIC "-//W3C//DTD SVG 20010904//EN"
 "http://www.w3.org/TR/2001/REC-SVG-20010904/DTD/svg10.dtd">
<svg version="1.0" xmlns="http://www.w3.org/2000/svg"
 width="512.000000pt" height="512.000000pt" viewBox="0 0 512.000000 512.000000"
 preserveAspectRatio="xMidYMid meet">
<metadata>
Created by potrace 1.16, written by Peter Selinger 2001-2019
</metadata>
<g transform="translate(0.000000,512.000000) scale(0.100000,-0.100000)"
fill="#000000" stroke="none">
<path d="M2091 5104 c-80 -21 -147 -62 -224 -133 -78 -74 -138 -183 -156 -285
-6 -33 -11 -169 -11 -303 0 -261 4 -283 52 -317 48 -34 151 -4 162 46 3 13 7
138 9 278 5 293 10 318 84 400 25 28 69 63 97 78 l51 27 890 2 890 2 -354
-120 c-223 -75 -372 -131 -403 -150 -94 -61 -167 -168 -188 -278 -6 -35 -10
-653 -10 -1773 l0 -1719 -412 3 -413 3 -51 27 c-28 15 -72 50 -97 78 -74 82
-79 107 -84 400 -2 140 -6 265 -9 278 -11 50 -114 80 -162 46 -48 -34 -52 -56
-52 -317 0 -134 5 -270 11 -303 18 -102 78 -211 156 -285 38 -35 91 -76 119
-91 102 -55 131 -58 581 -58 l413 0 0 -125 c0 -68 5 -148 11 -177 28 -129 114
-240 234 -299 60 -30 80 -34 166 -37 l97 -4 697 232 c783 261 781 260 862 378
80 117 73 -71 71 2187 l-3 2020 -34 67 c-41 82 -123 163 -206 204 l-60 29
-1335 2 c-1143 2 -1343 0 -1389 -13z m2677 -220 c49 -20 90 -60 113 -109 18
-38 19 -114 19 -2001 l0 -1960 -25 -51 c-15 -30 -41 -61 -63 -76 -21 -14 -316
-118 -706 -247 -598 -199 -673 -222 -718 -218 -66 7 -124 48 -157 113 l-26 49
0 1966 0 1965 22 40 c43 80 32 76 751 317 376 125 694 227 715 227 21 1 54 -6
75 -15z"/>
<path d="M1309 3811 c-25 -25 -29 -37 -29 -82 l0 -53 342 -343 342 -343 -942
0 c-1013 0 -984 1 -1012 -49 -13 -25 -13 -97 0 -122 28 -50 -1 -49 1012 -49
l942 0 -342 -343 -342 -344 0 -52 c0 -45 4 -57 29 -82 24 -23 38 -29 73 -29
24 0 55 7 68 16 36 24 837 822 871 868 39 52 39 100 0 152 -29 40 -799 807
-859 857 -48 39 -112 38 -153 -2z"/>
</g>
</svg>
